<svg width="16" height="16" viewBox="0 0 16 16" fill="none" xmlns="http://www.w3.org/2000/svg">
    <path fill-rule="evenodd" clip-rule="evenodd" d="M0.765258 5.3884L1.14005 10.773C1.26963 12.9899 2.96364 14.724 5.02495 14.7501H10.474C12.5357 14.7246 14.2303 12.9903 14.3599 10.773L14.7347 5.3884C14.8313 4.20732 14.4671 3.03625 13.7297 2.15625C12.9922 1.27625 11.948 0.766773 10.8478 0.750092H4.65115C3.55107 0.767075 2.50719 1.27669 1.76997 2.15664C1.03276 3.0366 0.66874 4.2075 0.765258 5.3884Z" stroke="black" stroke-width="1.5" stroke-linecap="round" stroke-linejoin="round"/>
    <path d="M10.7479 5.05795C10.7479 6.2122 10.1764 7.27878 9.24874 7.85591C8.32104 8.43303 7.17806 8.43303 6.25036 7.85591C5.32267 7.27878 4.75117 6.2122 4.75117 5.05795" stroke="black" stroke-width="1.5" stroke-linecap="round" stroke-linejoin="round"/>
</svg>
