<svg width="13" height="16" viewBox="0 0 13 16" fill="none" xmlns="http://www.w3.org/2000/svg">
    <path d="M4.34961 0.503906C4.50224 0.48789 4.67505 0.518497 4.80762 0.583008C4.82101 0.589545 4.88219 0.624328 4.95312 0.80957C5.02526 0.998032 5.08392 1.28321 5.125 1.69629C5.20711 2.52202 5.20801 3.71414 5.20801 5.35645C5.20801 6.64466 6.31703 7.63086 7.61035 7.63086C8.90366 7.63085 10.0127 6.64465 10.0127 5.35645C10.0128 5.17382 10.1286 5.04902 10.3154 5.01465C10.5026 4.98027 10.6664 5.05627 10.7393 5.23633C11.1647 6.28821 11.529 7.27626 11.7861 8.12305C12.0471 8.98249 12.1836 9.65292 12.1836 10.0869C12.1836 13.044 9.60174 15.5 6.3418 15.5C3.0819 15.4999 0.5 13.044 0.5 10.0869C0.500018 9.61867 0.659063 8.87994 0.957031 7.93262C1.25053 6.99952 1.66375 5.91087 2.13867 4.76367C2.76208 3.25785 3.21506 2.16492 3.60547 1.43457C3.80049 1.06974 3.96356 0.826003 4.10449 0.674805C4.24385 0.525347 4.32294 0.506717 4.34961 0.503906Z" stroke="#ACA9A7"/>
    <mask id="path-2-inside-1_1_298" fill="white">
        <path d="M5.07353 15.9997L4.7402 15.2228C4.16232 13.8758 4.40598 12.343 5.37795 11.2102C5.87211 10.6343 6.81173 10.6343 7.3059 11.2102C8.27786 12.343 8.52152 13.8758 7.94364 15.2228L7.61031 15.9997"/>
    </mask>
    <path d="M4.7402 15.2228L3.8212 15.617L3.8212 15.617L4.7402 15.2228ZM5.37795 11.2102L4.61902 10.559L4.61901 10.559L5.37795 11.2102ZM7.3059 11.2102L8.06483 10.559L8.06482 10.559L7.3059 11.2102ZM7.94364 15.2228L8.86264 15.617L8.86264 15.617L7.94364 15.2228ZM5.99253 15.6055L5.6592 14.8285L3.8212 15.617L4.15454 16.394L5.99253 15.6055ZM5.6592 14.8285C5.2352 13.8402 5.4074 12.7116 6.13688 11.8614L4.61901 10.559C3.40456 11.9745 3.08945 13.9114 3.8212 15.617L5.6592 14.8285ZM6.13687 11.8614C6.17519 11.8167 6.2451 11.7783 6.34192 11.7783C6.43875 11.7783 6.50865 11.8167 6.54697 11.8614L8.06482 10.559C7.17159 9.518 5.51225 9.518 4.61902 10.559L6.13687 11.8614ZM6.54697 11.8614C7.27644 12.7116 7.44864 13.8402 7.02465 14.8285L8.86264 15.617C9.5944 13.9114 9.27928 11.9745 8.06483 10.559L6.54697 11.8614ZM7.02465 14.8285L6.69131 15.6055L8.52931 16.394L8.86264 15.617L7.02465 14.8285Z" fill="#ACA9A7" mask="url(#path-2-inside-1_1_298)"/>
</svg>
