<svg width="20" height="20" viewBox="0 0 20 20" fill="none" xmlns="http://www.w3.org/2000/svg">
    <path d="M3.18187 3.9772H12.7273" stroke="white" stroke-width="1.5" stroke-linecap="round"/>
    <path d="M3.18187 9.54541H7.9546" stroke="white" stroke-width="1.5" stroke-linecap="round"/>
    <path d="M11.1363 9.54541H15.9091" stroke="white" stroke-width="1.5" stroke-linecap="round"/>
    <path d="M6.3636 15.1136H15.9091" stroke="white" stroke-width="1.5" stroke-linecap="round"/>
    <path d="M14.3182 5.56814C15.1968 5.56814 15.9091 4.85587 15.9091 3.97723C15.9091 3.0986 15.1968 2.38632 14.3182 2.38632C13.4395 2.38632 12.7273 3.0986 12.7273 3.97723C12.7273 4.85587 13.4395 5.56814 14.3182 5.56814Z" stroke="white" stroke-width="1.5" stroke-linecap="round"/>
    <path d="M9.5455 11.1363C10.4241 11.1363 11.1364 10.4241 11.1364 9.54544C11.1364 8.6668 10.4241 7.95453 9.5455 7.95453C8.66686 7.95453 7.95459 8.6668 7.95459 9.54544C7.95459 10.4241 8.66686 11.1363 9.5455 11.1363Z" stroke="white" stroke-width="1.5" stroke-linecap="round"/>
    <path d="M4.77278 16.7045C5.65141 16.7045 6.36369 15.9922 6.36369 15.1136C6.36369 14.2349 5.65141 13.5226 4.77278 13.5226C3.89414 13.5226 3.18187 14.2349 3.18187 15.1136C3.18187 15.9922 3.89414 16.7045 4.77278 16.7045Z" stroke="white" stroke-width="1.5" stroke-linecap="round"/>
</svg>
