<svg width="94" height="94" viewBox="0 0 94 94" fill="none" xmlns="http://www.w3.org/2000/svg">
    <path d="M77.6245 58.3256C79.9196 56.036 81.3569 54.6904 84.4917 54.6904C87.257 54.6904 89.7695 55.7954 91.8565 57.2378C87.0247 77.7898 68.5719 93.0901 46.5454 93.0901C25.4497 93.0901 7.63189 79.0558 1.91919 59.8146C5.76009 61.9216 10.7096 63.9994 15.5082 63.9994C19.2955 63.9994 23.1172 62.7115 26.3315 61.217C28.8088 60.0654 31.0912 58.7114 32.9508 57.4934C36.1503 61.4613 41.0512 63.9994 46.5454 63.9994C50.0442 63.9994 53.3028 62.9698 56.0345 61.1969C58.7058 62.7636 62.0165 63.9994 65.8271 63.9994C71.9394 63.9994 75.1641 60.7808 77.5262 58.4238L77.6245 58.3256Z" fill="white"/>
    <path d="M36.0724 46.5449C36.0724 40.7612 40.7613 36.0723 46.545 36.0723C52.3287 36.0723 57.0177 40.7612 57.0177 46.5449C57.0177 52.3286 52.3287 57.0175 46.545 57.0175C40.7613 57.0175 36.0724 52.3286 36.0724 46.5449Z" fill="white"/>
    <path fill-rule="evenodd" clip-rule="evenodd" d="M46.545 29.0906C36.9052 29.0906 29.0906 36.9052 29.0906 46.545C29.0906 48.175 29.3141 49.7529 29.7319 51.2493C27.9693 52.4372 25.7538 53.786 23.3876 54.8864C20.5765 56.1934 17.8297 57.0177 15.5078 57.0177C11.9712 57.0177 7.62296 55.1247 3.81236 52.8551C2.41639 52.0234 1.17056 51.1893 0.163559 50.4748C0.0552491 49.1795 0 47.8688 0 46.545C0 32.5726 6.1567 20.0382 15.9052 11.5065C15.9811 11.6 16.0626 11.6904 16.1496 11.7774L20.8041 16.4319C22.1674 17.7952 24.3777 17.7952 25.7409 16.4319C27.1042 15.0687 27.1042 12.8583 25.7409 11.4951L21.5315 7.2856C28.7558 2.67313 37.3384 0 46.545 0C60.5174 0 73.052 6.1567 81.5837 15.9052C81.4901 15.9811 81.3998 16.0626 81.3128 16.1496L76.6583 20.8041C75.295 22.1674 75.295 24.3777 76.6583 25.7409C78.0216 27.1042 80.2315 27.1042 81.5948 25.7409L85.8044 21.5315C90.417 28.7558 93.0901 37.3384 93.0901 46.545C93.0901 47.6393 93.0524 48.7247 92.9779 49.7999C90.5431 48.5763 87.6904 47.7087 84.4913 47.7087C78.3791 47.7087 75.1539 50.9273 72.7918 53.2843L72.6936 53.3825C70.3984 55.6721 68.9611 57.0177 65.8268 57.0177C64.1958 57.0177 62.6478 56.636 61.2104 56.0137C62.975 53.2862 63.9994 50.035 63.9994 46.545C63.9994 36.9052 56.185 29.0906 46.545 29.0906ZM67.2576 11.1708C68.8001 12.3276 69.1124 14.5157 67.9558 16.058L60.974 25.367C59.8174 26.9094 57.6293 27.222 56.0868 26.0652C54.5443 24.9084 54.2319 22.7204 55.3886 21.178L62.3703 11.869C63.527 10.3266 65.7151 10.014 67.2576 11.1708ZM39.4222 6.84058C38.0589 8.20384 38.0589 10.4142 39.4222 11.7774L44.0768 16.4319C45.4401 17.7952 47.65 17.7952 49.0133 16.4319C50.3766 15.0687 50.3766 12.8583 49.0133 11.4951L44.3588 6.84058C42.9955 5.47733 40.7856 5.47733 39.4222 6.84058ZM29.8332 25.8797C30.3322 27.742 32.2464 28.8471 34.1086 28.3481L40.4667 26.6444C42.329 26.1455 43.4344 24.2313 42.935 22.369C42.436 20.5068 40.5221 19.4016 38.6598 19.9006L32.3016 21.6043C30.4393 22.1033 29.3342 24.0174 29.8332 25.8797ZM68.6609 42.5343C70.5865 42.444 72.0745 40.8093 71.9838 38.8833L71.6747 32.3083C71.5844 30.3825 69.9497 28.8946 68.0237 28.9851C66.0981 29.0757 64.6101 30.7102 64.7009 32.636L65.0099 39.2114C65.1002 41.137 66.7349 42.625 68.6609 42.5343ZM78.8533 44.4687C80.1277 45.9157 82.3335 46.0554 83.7801 44.7814L89.2427 40.2517C90.6898 38.9773 90.8294 36.7715 89.5555 35.3246C88.281 33.8778 86.0753 33.7378 84.6282 35.012L79.1661 39.5419C77.719 40.8158 77.5789 43.022 78.8533 44.4687ZM18.138 24.0807C16.3828 24.8786 15.6067 26.9481 16.4046 28.7033L19.1285 34.6957C19.9263 36.4508 21.9959 37.2269 23.751 36.429C25.5062 35.6313 26.2822 33.5616 25.4844 31.8065L22.7605 25.8141C21.9626 24.0589 19.8931 23.2829 18.138 24.0807ZM23.0076 41.4013C24.5634 42.5403 24.9015 44.7247 23.7629 46.2802L19.8753 51.5919C18.7367 53.1479 16.5523 53.4858 14.9966 52.3473C13.4408 51.2089 13.1026 49.0245 14.2412 47.4685L18.1289 42.1568C19.2675 40.6012 21.4518 40.2629 23.0076 41.4013ZM7.27192 28.806C5.34695 28.9132 3.87339 30.5606 3.98063 32.4856L4.34675 39.0578C4.45399 40.9829 6.1014 42.4565 8.02641 42.349C9.95138 42.242 11.4249 40.5947 11.3177 38.6696L10.9515 32.0973C10.8443 30.1723 9.19688 28.6987 7.27192 28.806Z" fill="white"/>
</svg>
